<svg xmlns="http://www.w3.org/2000/svg" width="27.234" height="21.815" viewBox="0 0 27.234 21.815">
  <g id="Group_127" data-name="Group 127" transform="translate(-1077.183 -374.974)">
    <g id="Group_125" data-name="Group 125" transform="translate(1078.534 378)">
      <path id="Path_124" data-name="Path 124" d="M4341.533,161.5s3.944-7.48,12.547-7.48,11.973,7.48,11.973,7.48" transform="translate(-4341.533 -154.024)" fill="none" stroke="#f53b2d" stroke-linecap="round" stroke-linejoin="round" stroke-width="2"/>
      <path id="Path_125" data-name="Path 125" d="M0,6.991A14.947,14.947,0,0,1,12.546,0,13.492,13.492,0,0,1,24.52,6.991" transform="translate(24.52 14.951) rotate(180)" fill="none" stroke="#f53b2d" stroke-linecap="round" stroke-linejoin="round" stroke-width="2"/>
      <g id="Ellipse_38" data-name="Ellipse 38" transform="translate(4.885)" fill="none" stroke="#f53b2d" stroke-width="2">
        <ellipse cx="7.4" cy="7.4" rx="7.4" ry="7.4" stroke="none"/>
        <ellipse cx="7.4" cy="7.4" rx="6.4" ry="6.4" fill="none"/>
      </g>
      <circle id="Ellipse_39" data-name="Ellipse 39" cx="3" cy="3" r="3" transform="translate(9.466 4.734)" fill="#f53b2d"/>
      <rect id="Rectangle_350" data-name="Rectangle 350" width="3" height="3" rx="1.5" transform="translate(9.466 3.734)" fill="#fff"/>
    </g>
    <path id="Path_140" data-name="Path 140" d="M425.335,8600.021l18.987,18.987" transform="translate(656.366 -8223.634)" fill="none" stroke="#f53b2d" stroke-linecap="round" stroke-width="2"/>
  </g>
</svg>
