<svg xmlns="http://www.w3.org/2000/svg" width="27.234" height="16.95" viewBox="0 0 27.234 16.95">
  <g id="Group_368" data-name="Group 368" transform="translate(-661.149 -7539.855)">
    <path id="Path_124" data-name="Path 124" d="M4341.533,161.5s3.944-7.48,12.547-7.48,11.973,7.48,11.973,7.48" transform="translate(-3679.033 7386.831)" fill="none" stroke="#f8f8f8" stroke-linecap="round" stroke-linejoin="round" stroke-width="2"/>
    <path id="Path_125" data-name="Path 125" d="M0,6.991A14.947,14.947,0,0,1,12.546,0,13.492,13.492,0,0,1,24.52,6.991" transform="translate(687.02 7555.806) rotate(180)" fill="none" stroke="#f8f8f8" stroke-linecap="round" stroke-linejoin="round" stroke-width="2"/>
    <g id="Ellipse_38" data-name="Ellipse 38" transform="translate(667.385 7540.855)" fill="none" stroke="#f8f8f8" stroke-width="2">
      <ellipse cx="7.4" cy="7.4" rx="7.4" ry="7.4" stroke="none"/>
      <ellipse cx="7.4" cy="7.4" rx="6.4" ry="6.4" fill="none"/>
    </g>
    <path id="Subtraction_2" data-name="Subtraction 2" d="M129.965,587.855a3,3,0,0,1-2.606-4.487,1.5,1.5,0,0,0,2.521-1.512h.085a3,3,0,1,1,0,6Z" transform="translate(545 6963.734)" fill="#f8f8f8"/>
  </g>
</svg>
