<svg id="Group_366" data-name="Group 366" xmlns="http://www.w3.org/2000/svg" width="508" height="739" viewBox="0 0 508 739">
  <rect id="Rectangle_453" data-name="Rectangle 453" width="508" height="739" transform="translate(508 739) rotate(180)" fill="#1b182a"/>
  <g id="Group_211" data-name="Group 211">
    <path id="Rectangle_483" data-name="Rectangle 483" d="M0,0H332a3,3,0,0,1,3,3V396a3,3,0,0,1-3,3H0a0,0,0,0,1,0,0V0A0,0,0,0,1,0,0Z" transform="translate(0 289)" fill="#f73e2f"/>
    <path id="Rectangle_484" data-name="Rectangle 484" d="M3,0H335a0,0,0,0,1,0,0V399a0,0,0,0,1,0,0H3a3,3,0,0,1-3-3V3A3,3,0,0,1,3,0Z" transform="translate(173 51)" fill="#53af95"/>
    <path id="Rectangle_482" data-name="Rectangle 482" d="M0,0H159a3,3,0,0,1,3,3V161a0,0,0,0,1,0,0H3a3,3,0,0,1-3-3V0A0,0,0,0,1,0,0Z" transform="translate(173 289)" fill="#6c987f"/>
  </g>
</svg>
