<svg xmlns="http://www.w3.org/2000/svg" xmlns:xlink="http://www.w3.org/1999/xlink" viewBox="0 0 164.41 468.02"><defs><style>.cls-1{fill:#c5c9d3;}.cls-2{fill:#dadbef;}.cls-3{fill:url(#linear-gradient);}.cls-4{fill:url(#linear-gradient-2);}.cls-5{fill:url(#linear-gradient-3);}.cls-6{fill:url(#linear-gradient-4);}.cls-7{fill:url(#linear-gradient-5);}.cls-8{fill:#6d321d;}.cls-9{fill:url(#linear-gradient-6);}.cls-10{fill:url(#linear-gradient-7);}.cls-11{fill:url(#linear-gradient-8);}.cls-12{fill:url(#linear-gradient-9);}.cls-13{fill:url(#linear-gradient-10);}.cls-14{fill:url(#linear-gradient-11);}.cls-15{fill:url(#linear-gradient-12);}.cls-16{fill:#fff;}.cls-17{fill:url(#linear-gradient-13);}.cls-18{fill:url(#linear-gradient-14);}.cls-19{fill:url(#linear-gradient-15);}</style><linearGradient id="linear-gradient" x1="68.09" y1="453.84" x2="68.09" y2="330.02" gradientUnits="userSpaceOnUse"><stop offset="0.18" stop-color="#ef9d70"/><stop offset="0.76" stop-color="#e08658"/></linearGradient><linearGradient id="linear-gradient-2" x1="1332.09" y1="453.84" x2="1332.09" y2="330.02" gradientTransform="matrix(-1, 0, 0, 1, 1365.87, 0)" xlink:href="#linear-gradient"/><linearGradient id="linear-gradient-3" x1="50.93" y1="472.53" x2="50.93" y2="212.08" gradientUnits="userSpaceOnUse"><stop offset="0.21" stop-color="#6688c8"/><stop offset="0.76" stop-color="#7798d8"/></linearGradient><linearGradient id="linear-gradient-4" x1="13.54" y1="205.68" x2="13.54" y2="151.22" xlink:href="#linear-gradient"/><linearGradient id="linear-gradient-5" x1="1108.64" y1="205.68" x2="1108.64" y2="151.22" gradientTransform="matrix(-1, 0, 0, 1, 1196.97, 0)" xlink:href="#linear-gradient"/><linearGradient id="linear-gradient-6" x1="50.93" y1="223.22" x2="50.93" y2="110.03" gradientUnits="userSpaceOnUse"><stop offset="0.12" stop-color="#ebbc40"/><stop offset="0.84" stop-color="#ebb440"/></linearGradient><linearGradient id="linear-gradient-7" x1="50.93" y1="140.08" x2="50.93" y2="84.36" xlink:href="#linear-gradient"/><linearGradient id="linear-gradient-8" x1="24.71" y1="62.66" x2="24.71" y2="48.61" gradientTransform="translate(-3.97 4.62) rotate(-5)" xlink:href="#linear-gradient"/><linearGradient id="linear-gradient-9" x1="77.15" y1="62.66" x2="77.15" y2="48.61" gradientTransform="translate(-3.97 4.62) rotate(-5)" xlink:href="#linear-gradient"/><linearGradient id="linear-gradient-10" x1="50.93" y1="95.59" x2="50.93" y2="10.79" gradientTransform="translate(-3.97 4.62) rotate(-5)" xlink:href="#linear-gradient"/><linearGradient id="linear-gradient-11" x1="35.98" y1="47.64" x2="39.36" y2="47.64" gradientTransform="translate(0.04 1.16)" gradientUnits="userSpaceOnUse"><stop offset="0.19" stop-color="#172144"/><stop offset="0.76" stop-color="#2b2b71"/></linearGradient><linearGradient id="linear-gradient-12" x1="62.5" y1="47.64" x2="65.87" y2="47.64" gradientTransform="translate(-0.06 -1.15)" xlink:href="#linear-gradient-11"/><linearGradient id="linear-gradient-13" x1="138.71" y1="107.39" x2="162.55" y2="121.16" gradientTransform="translate(4.78 16.02) rotate(3.07)" xlink:href="#linear-gradient"/><linearGradient id="linear-gradient-14" x1="108.87" y1="159.8" x2="127.95" y2="170.82" xlink:href="#linear-gradient"/><linearGradient id="linear-gradient-15" x1="107.15" y1="171.35" x2="107.29" y2="171.43" xlink:href="#linear-gradient"/></defs><g id="Layer_2" data-name="Layer 2"><g id="Layer_1-2" data-name="Layer 1"><path class="cls-1" d="M89.6,465.67l.84.57a.71.71,0,0,1,.31.58V468H67.18c-6.23,0-5.78-5.83-5.69-7.22s-5-3.11-3.29-6.23S89.6,465.67,89.6,465.67Z"/><path class="cls-2" d="M73.59,436.47c0,4.38,3.9,12.4,8.53,17.37,3.94,4.23,7.87,6.51,9,9.91a1.51,1.51,0,0,1-1.48,1.92h-19c-7.8,0-8.14-3.05-8.06-5.54s-4.61-2.57-4.61-7.62,2.08-12,4.72-15.43Z"/><path class="cls-1" d="M12.26,465.67l-.84.57a.71.71,0,0,0-.31.58V468H34.68c6.23,0,5.78-5.83,5.7-7.22s5-3.11,3.28-6.23S12.26,465.67,12.26,465.67Z"/><path class="cls-2" d="M28.27,436.47c0,4.38-3.9,12.4-8.53,17.37-3.93,4.23-7.87,6.51-9,9.91a1.51,1.51,0,0,0,1.48,1.92h19c7.8,0,8.15-3.05,8.06-5.54S44,457.56,44,452.51s-2.07-12-4.71-15.43Z"/><path class="cls-3" d="M73.55,439.67c0-19.78,7.11-72.67,3.93-109.65H58.71c-3.18,37,3.93,89.87,3.93,109.65,0,9.94,7,14.29,12.13,14.17S73.55,445.83,73.55,439.67Z"/><path class="cls-4" d="M28.32,439.67c0-19.78-7.11-72.67-3.93-109.65H43.16c3.18,37-3.93,89.87-3.93,109.65,0,9.94-7,14.29-12.13,14.17S28.32,445.83,28.32,439.67Z"/><path class="cls-5" d="M28,430.5H39.58c.32-5.73.85-12.62,1.44-20.24h0c0-.7.11-1.4.16-2.1,1.75-21.31,8-59.78,2-78.13,0,0,7.14-63.84,7.75-84.26.61,20.22,7.6,83,7.73,84.23v0a0,0,0,0,1,0,0c-5.9,18.18.15,56.05,2,77.46.66,8.71,1.29,16.58,1.65,23H73.85c1.33-23.93,6.38-68.23,3.61-100.48,0,0,25.17-53.14,11-117.94h-75c-14.2,64.8,11,117.94,11,117.94C21.63,362.27,26.68,406.57,28,430.5Z"/><path class="cls-6" d="M2.22,151.22v15.65a48.82,48.82,0,0,0,3.43,18l8.23,20.82h11V151.22Z"/><path class="cls-7" d="M99.64,151.22v15.65a48.82,48.82,0,0,1-3.43,18L88,205.68H77V151.22Z"/><path class="cls-8" d="M88.48,35.15,92.15,77s-8.9,7.64-37.77,10.17-38.95-3.46-38.95-3.46L11.76,41.86a38.51,38.51,0,0,1,76.72-6.71Z"/><path class="cls-9" d="M86.6,151.22v-.17h0s-1.85,41.55,5,66.24c0,0-9.46,5.93-40.67,5.93s-40.67-5.93-40.67-5.93c6.86-24.69,5-66.24,5-66.24v.17H0V124.37A14.34,14.34,0,0,1,14.34,110H87.52a14.34,14.34,0,0,1,14.34,14.34v26.85Z"/><path class="cls-10" d="M68.49,110a0,0,0,0,1,0,0c-.21.83-7.08,30-17.55,30s-17.34-29.2-17.55-30a0,0,0,0,1,0,0A26,26,0,0,0,35,84.36l31.9,3C60,101.42,68.49,110,68.49,110Z"/><circle class="cls-11" cx="25.49" cy="57.89" r="7.02"/><circle class="cls-12" cx="77.73" cy="53.32" r="7.02"/><path class="cls-13" d="M76,33.11l2.22,25.38C79.74,76.27,68.07,94.28,55.1,95.41h0C42.12,96.55,27.5,80.84,26,63.06L23.73,37.68c-1.18-13.51,9.55-25.49,24-26.75A27,27,0,0,1,66.8,16.48,23.74,23.74,0,0,1,76,33.11Z"/><rect class="cls-14" x="36.02" y="45.43" width="3.38" height="6.73" rx="1.69" transform="translate(-4.11 3.47) rotate(-5)"/><rect class="cls-15" x="62.43" y="43.12" width="3.38" height="6.73" rx="1.69" transform="translate(-3.81 5.77) rotate(-5)"/><path class="cls-16" d="M62.75,71.24a9.73,9.73,0,1,1-19.38,1.7"/><path class="cls-8" d="M26.16,25.15s10.05,14,50.36,10.48L73.84,8.22,25.05,12.49Z"/><circle class="cls-2" cx="80.14" cy="61.55" r="2.31"/><circle class="cls-2" cx="24.55" cy="66.42" r="2.31"/><path class="cls-17" d="M162.38,141.7a2,2,0,0,1,.06.6,3.35,3.35,0,0,1-2.37,2.74l-23.74,8.12-.23.09.22-.3c5.65-7.93.16-12.84-2.82-16.06l18.59-17a3.3,3.3,0,0,1,4.13-.46h0c1.06.86.93,2.47-.29,3.59l-17,15.58,18.92-15a3.17,3.17,0,0,1,4.09-.14h0c1,.95.67,2.58-.64,3.62L143.73,141l16.4-10.17c1.43-.89,3.2-.71,4,.39a2,2,0,0,1,.33,1.22,3.16,3.16,0,0,1-1.57,2.39l-15.1,9.37L159,140.3C160.54,139.76,162.08,140.39,162.38,141.7Z"/><path class="cls-18" d="M138.77,152c-.05.13-.13.25-.19.38h0c-3,1.43-7.23,4.46-12.92,12.46-5.82,8.19-14.19,34.52-23.92,41.51l0,0c-3.75,2.49-7.76,3.34-11.16.19-8.57-7.92,12.79-36.91,21.86-44.34s15.11-15.56,15.25-22.85c.3-4-.51-9.12,2.28-15l3-6.33a1.61,1.61,0,0,1,2.29-.75,1.83,1.83,0,0,1,.86,1.58,1.94,1.94,0,0,1-.13.71c-.85,2.22-2.37,6.43-2.61,9.15-.09,1,.69,2.05,1.77,3.38C138.26,136,144,141.77,138.77,152Z"/><path class="cls-19" d="M107.39,171.26a1.2,1.2,0,0,1-.11.17l-.22.12c.07-.13.14-.26.2-.39Z"/></g></g></svg>