<svg xmlns="http://www.w3.org/2000/svg" xmlns:xlink="http://www.w3.org/1999/xlink" viewBox="0 0 182.81 212.3"><defs><style>.cls-1{fill:#edece8;}.cls-2{fill:#f3f3f3;}.cls-3{fill:url(#linear-gradient);}.cls-4{fill:#683f32;}.cls-5{fill:#fff;}</style><linearGradient id="linear-gradient" x1="91.41" y1="143.89" x2="91.41" y2="17.6" gradientUnits="userSpaceOnUse"><stop offset="0.17" stop-color="#d3d5d6" stop-opacity="0.5"/><stop offset="0.78" stop-color="#d3d5d6" stop-opacity="0.1"/></linearGradient></defs><g id="Layer_2" data-name="Layer 2"><g id="Layer_1-2" data-name="Layer 1"><path class="cls-1" d="M153.66,120.46c6.93-5.47,20.14-6.73,23.32,5.4s.68,24.75-11.66,33.12"/><path class="cls-1" d="M122.54,212.3c-15.88,0-30-4.25-36-10.83a10.57,10.57,0,0,1-3.08-7.17c0-10.09,17.17-18,39.08-18s39.08,7.9,39.08,18a10.57,10.57,0,0,1-3.08,7.17C152.54,208.05,138.41,212.3,122.54,212.3Z"/><path class="cls-2" d="M122.54,209c-20.89,0-39.49-6.32-47.38-16.1a16.77,16.77,0,0,1-4-10.66c0-15,22.59-26.76,51.43-26.76S174,167.25,174,182.25a16.77,16.77,0,0,1-4.05,10.66C162,202.69,143.43,209,122.54,209Z"/><path class="cls-1" d="M75.08,139.24H170a0,0,0,0,1,0,0v5.51a47.46,47.46,0,0,1-47.46,47.46h0a47.46,47.46,0,0,1-47.46-47.46v-5.51A0,0,0,0,1,75.08,139.24Z"/><path class="cls-2" d="M122.54,163.93c-19.28,0-36.44-5.83-43.72-14.85a15.52,15.52,0,0,1-3.74-9.84c0-13.85,20.85-24.69,47.46-24.69S170,125.39,170,139.24a15.52,15.52,0,0,1-3.74,9.84C159,158.1,141.82,163.93,122.54,163.93Z"/><path class="cls-1" d="M166.85,139.24a12.41,12.41,0,0,1-3,7.86c-6.45-8-22.5-13.69-41.27-13.69s-34.82,5.67-41.27,13.69a12.42,12.42,0,0,1-3-7.86c0-11.89,19.85-21.55,44.32-21.55S166.85,127.35,166.85,139.24Z"/><path class="cls-3" d="M155.32,143.89V120.45a8.45,8.45,0,0,0-8.46-8.46h-9.35a8.46,8.46,0,1,1,0-16.92h13.58a8.46,8.46,0,1,0,0-16.92H111.46v0a9.58,9.58,0,0,1,0-19.16h49.72a21.62,21.62,0,0,0,21.63-21.64c0-14.95-12-19.72-12-19.72a21.62,21.62,0,0,1-21.63,21.64H21.64A21.63,21.63,0,0,0,0,60.88v-.07A21.63,21.63,0,0,0,21.64,82.45v-.07H52.28a8.46,8.46,0,0,1,0,16.92H21.64a8.46,8.46,0,0,0,0,16.92H81.19a8.45,8.45,0,0,1,8.46,8.46v19.21"/><path class="cls-4" d="M163.81,147.1c-6.46,8-22.51,13.69-41.27,13.69s-34.81-5.68-41.27-13.69c6.45-8,22.49-13.69,41.27-13.69S157.36,139.08,163.81,147.1Z"/><rect class="cls-5" x="77.19" width="0.04" height="0.02"/><polygon class="cls-5" points="118.43 0.02 118.44 0 118.44 0.02 118.43 0.02"/><rect class="cls-5" x="159.66" width="0.03" height="0.02"/></g></g></svg>