<svg xmlns="http://www.w3.org/2000/svg" xmlns:xlink="http://www.w3.org/1999/xlink" viewBox="0 0 206.77 206.76"><defs><style>.cls-1{fill:url(#linear-gradient);}.cls-2{fill:url(#linear-gradient-2);}.cls-3{fill:#dadbef;}.cls-4{fill:url(#linear-gradient-3);}.cls-5{fill:url(#linear-gradient-4);}.cls-6{fill:url(#linear-gradient-5);}.cls-7{fill:#6d321d;}.cls-8{fill:url(#linear-gradient-6);}.cls-9{fill:url(#linear-gradient-7);}.cls-10{fill:url(#linear-gradient-8);}.cls-11{fill:#fff;}.cls-12{fill:url(#linear-gradient-9);}.cls-13{fill:url(#linear-gradient-10);}.cls-14{fill:#c5c9d3;}</style><linearGradient id="linear-gradient" y1="103.38" x2="206.77" y2="103.38" gradientUnits="userSpaceOnUse"><stop offset="0.08" stop-color="#c7d3bd"/><stop offset="0.84" stop-color="#e0ecd8"/></linearGradient><linearGradient id="linear-gradient-2" x1="103.39" y1="153.27" x2="103.39" y2="69.38" gradientUnits="userSpaceOnUse"><stop offset="0.14" stop-color="#f6b192"/><stop offset="0.46" stop-color="#dd8870"/></linearGradient><linearGradient id="linear-gradient-3" x1="77.18" y1="95.21" x2="77.18" y2="77.89" gradientUnits="userSpaceOnUse"><stop offset="0.14" stop-color="#f6b192"/><stop offset="0.76" stop-color="#f5a07b"/></linearGradient><linearGradient id="linear-gradient-4" x1="129.61" y1="95.21" x2="129.61" y2="77.89" xlink:href="#linear-gradient-3"/><linearGradient id="linear-gradient-5" x1="103.39" y1="134.12" x2="103.39" y2="40.19" xlink:href="#linear-gradient-3"/><linearGradient id="linear-gradient-6" x1="88.76" y1="80.46" x2="91.86" y2="80.46" gradientUnits="userSpaceOnUse"><stop offset="0.19" stop-color="#172144"/><stop offset="0.76" stop-color="#2b2b71"/></linearGradient><linearGradient id="linear-gradient-7" x1="114.95" y1="80.46" x2="118.05" y2="80.46" xlink:href="#linear-gradient-6"/><linearGradient id="linear-gradient-8" x1="90.46" y1="111.96" x2="116.33" y2="111.96" xlink:href="#linear-gradient-3"/><linearGradient id="linear-gradient-9" x1="40.31" y1="147.43" x2="40.31" y2="193.91" gradientUnits="userSpaceOnUse"><stop offset="0.23" stop-color="#dadbef" stop-opacity="0"/><stop offset="0.62" stop-color="#c5c7dd"/></linearGradient><linearGradient id="linear-gradient-10" x1="166.37" y1="147.43" x2="166.37" y2="193.95" xlink:href="#linear-gradient-9"/></defs><g id="Layer_2" data-name="Layer 2"><g id="Layer_1-2" data-name="Layer 1"><path class="cls-1" d="M206.77,103.37a103,103,0,0,1-23.63,65.8c-.28.34-.55.67-.85,1a.28.28,0,0,1-.07.09h0l-.07.09c-.83,1-1.67,1.93-2.54,2.87a.23.23,0,0,1-.07.07,102.6,102.6,0,0,1-10.78,10.17l-.58.46a100,100,0,0,1-14.95,10,0,0,0,0,1,0,0,102.54,102.54,0,0,1-48.58,12.78h0c-.42,0-.83,0-1.24,0s-.83,0-1.25,0a102.64,102.64,0,0,1-48.67-12.83,100.47,100.47,0,0,1-14.86-10l-.57-.46a101.11,101.11,0,0,1-10.86-10.24q-1.34-1.46-2.61-3l-.08-.1c-.3-.32-.57-.65-.84-1a103.38,103.38,0,1,1,183.13-65.81Z"/><rect class="cls-2" x="77.18" y="69.38" width="52.43" height="83.88"/><path class="cls-3" d="M179.6,173.23a.23.23,0,0,1-.07.07,102.6,102.6,0,0,1-10.78,10.17l-.58.46a100,100,0,0,1-14.95,10,0,0,0,0,1,0,0,102.54,102.54,0,0,1-48.58,12.78h0c-.42,0-.83,0-1.24,0s-.83,0-1.25,0a102.64,102.64,0,0,1-48.67-12.83,100.47,100.47,0,0,1-14.86-10l-.57-.46a101.11,101.11,0,0,1-10.86-10.24l.12-.49a31.59,31.59,0,0,1,16.56-20.91l.88-.42,8.73-4,23.7-10.79h0l4.58,2.91,21.6,13.72h0l26.21-16.64h0L162,151.41l.88.42a31.59,31.59,0,0,1,16.56,20.91Z"/><circle class="cls-4" cx="77.18" cy="86.55" r="8.66"/><circle class="cls-5" cx="129.61" cy="86.55" r="8.66"/><rect class="cls-6" x="77.18" y="40.19" width="52.43" height="93.93" rx="26.21"/><path class="cls-7" d="M77.18,101.38v6.52a26.22,26.22,0,0,0,26.21,26.22h0a26.22,26.22,0,0,0,26.22-26.22v-6.52Z"/><rect class="cls-8" x="88.76" y="77.37" width="3.1" height="6.18" rx="1.55"/><rect class="cls-9" x="114.95" y="77.37" width="3.1" height="6.18" rx="1.55"/><path class="cls-10" d="M103.4,118.43a13,13,0,0,1-12.94-12.94h8a4.94,4.94,0,1,0,9.87,0h8A13,13,0,0,1,103.4,118.43Z"/><path class="cls-11" d="M112.33,105.49a8.94,8.94,0,1,1-17.87,0Z"/><path class="cls-12" d="M53.46,147.43v46.48a100.47,100.47,0,0,1-14.86-10l-.57-.46a101.11,101.11,0,0,1-10.86-10.24l.12-.49a31.59,31.59,0,0,1,16.56-20.91l.88-.42Z"/><path class="cls-13" d="M179.53,173.3a102.6,102.6,0,0,1-10.78,10.17l-.58.46a100,100,0,0,1-14.95,10V147.43l8.73,4,.88.42a31.65,31.65,0,0,1,16.56,20.91Z"/><path class="cls-7" d="M91.36,38h43.5a0,0,0,0,1,0,0v0A28.36,28.36,0,0,1,106.5,66.4H91.36A14.18,14.18,0,0,1,77.18,52.22v0A14.18,14.18,0,0,1,91.36,38Z"/><path class="cls-7" d="M96.92,32.43h27a0,0,0,0,1,0,0v0A17.61,17.61,0,0,1,106.31,50h-9.4a8.8,8.8,0,0,1-8.8-8.8v0a8.8,8.8,0,0,1,8.8-8.8Z"/><polygon class="cls-14" points="103.38 153.27 85.84 165.64 77.16 136.63 103.38 153.27"/><polygon class="cls-14" points="103.39 153.27 120.93 165.64 129.61 136.63 103.39 153.27"/><circle class="cls-14" cx="103.38" cy="161.92" r="2.62"/><circle class="cls-14" cx="103.38" cy="172.78" r="2.62"/></g></g></svg>