<svg xmlns="http://www.w3.org/2000/svg" xmlns:xlink="http://www.w3.org/1999/xlink" viewBox="0 0 160.99 472.5"><defs><style>.cls-1{fill:url(#linear-gradient);}.cls-2{fill:url(#linear-gradient-2);}.cls-3{fill:url(#linear-gradient-3);}.cls-4{fill:url(#linear-gradient-4);}.cls-5{fill:url(#linear-gradient-5);}.cls-6{fill:url(#linear-gradient-6);}.cls-7{fill:url(#linear-gradient-7);}.cls-8{fill:url(#linear-gradient-8);}.cls-9{fill:url(#linear-gradient-9);}.cls-10{fill:url(#linear-gradient-10);}.cls-11{fill:url(#linear-gradient-11);}.cls-12{fill:#fff;}.cls-13{fill:#dadbef;}.cls-14{fill:url(#linear-gradient-12);}.cls-15{fill:url(#linear-gradient-13);}.cls-16{fill:url(#linear-gradient-14);}.cls-17{fill:url(#linear-gradient-15);}.cls-18{fill:url(#linear-gradient-16);}.cls-19{fill:url(#linear-gradient-17);}.cls-20{fill:url(#linear-gradient-18);}.cls-21{fill:url(#linear-gradient-19);}.cls-22{fill:url(#linear-gradient-20);}.cls-23{fill:url(#linear-gradient-21);}</style><linearGradient id="linear-gradient" x1="15.12" y1="205.65" x2="15.12" y2="151.19" gradientUnits="userSpaceOnUse"><stop offset="0.14" stop-color="#f8c59a"/><stop offset="0.76" stop-color="#f9c49a"/></linearGradient><linearGradient id="linear-gradient-2" x1="2097.43" y1="205.65" x2="2097.43" y2="151.19" gradientTransform="matrix(-1, 0, 0, 1, 2184.34, 0)" xlink:href="#linear-gradient"/><linearGradient id="linear-gradient-3" x1="51.02" y1="119.6" x2="51.02" y2="-0.07" gradientTransform="translate(-4.72 4.65) rotate(-5)" gradientUnits="userSpaceOnUse"><stop offset="0.12" stop-color="#ebbc40"/><stop offset="0.84" stop-color="#ebb440"/></linearGradient><linearGradient id="linear-gradient-4" y1="157.82" x2="101.85" y2="157.82" gradientUnits="userSpaceOnUse"><stop offset="0.19" stop-color="#e65558"/><stop offset="0.89" stop-color="#f46a6a"/></linearGradient><linearGradient id="linear-gradient-5" x1="50.93" y1="329.99" x2="50.93" y2="205.65" gradientUnits="userSpaceOnUse"><stop offset="0.19" stop-color="#172144"/><stop offset="0.76" stop-color="#2b2b71"/></linearGradient><linearGradient id="linear-gradient-6" x1="50.93" y1="85.32" x2="50.93" y2="127.79" gradientUnits="userSpaceOnUse"><stop offset="0.14" stop-color="#e4a37a"/><stop offset="0.76" stop-color="#f9c49a"/></linearGradient><linearGradient id="linear-gradient-7" x1="24.71" y1="62.63" x2="24.71" y2="48.58" gradientTransform="translate(-4.72 4.65) rotate(-5)" xlink:href="#linear-gradient"/><linearGradient id="linear-gradient-8" x1="77.14" y1="62.63" x2="77.14" y2="48.58" gradientTransform="translate(-4.72 4.65) rotate(-5)" xlink:href="#linear-gradient"/><linearGradient id="linear-gradient-9" x1="50.93" y1="95.56" x2="50.93" y2="10.76" gradientTransform="translate(-4.72 4.65) rotate(-5)" xlink:href="#linear-gradient"/><linearGradient id="linear-gradient-10" x1="35.98" y1="47.61" x2="39.35" y2="47.61" gradientTransform="translate(-0.71 1.19)" xlink:href="#linear-gradient-5"/><linearGradient id="linear-gradient-11" x1="62.49" y1="47.61" x2="65.87" y2="47.61" gradientTransform="translate(-0.82 -1.12)" xlink:href="#linear-gradient-5"/><linearGradient id="linear-gradient-12" x1="64.17" y1="465.64" x2="64.17" y2="437.79" xlink:href="#linear-gradient-5"/><linearGradient id="linear-gradient-13" x1="72.12" y1="472.5" x2="72.12" y2="437.79" xlink:href="#linear-gradient-5"/><linearGradient id="linear-gradient-14" x1="68.09" y1="453.82" x2="68.09" y2="329.99" xlink:href="#linear-gradient"/><linearGradient id="linear-gradient-15" x1="2315.55" y1="465.64" x2="2315.55" y2="437.79" gradientTransform="matrix(-1, 0, 0, 1, 2353.24, 0)" xlink:href="#linear-gradient-5"/><linearGradient id="linear-gradient-16" x1="2323.5" y1="472.5" x2="2323.5" y2="437.79" gradientTransform="matrix(-1, 0, 0, 1, 2353.24, 0)" xlink:href="#linear-gradient-5"/><linearGradient id="linear-gradient-17" x1="2319.47" y1="453.82" x2="2319.47" y2="329.99" gradientTransform="matrix(-1, 0, 0, 1, 2353.24, 0)" xlink:href="#linear-gradient"/><linearGradient id="linear-gradient-18" x1="52.71" y1="37.88" x2="52.71" y2="10.49" xlink:href="#linear-gradient-3"/><linearGradient id="linear-gradient-19" x1="105.45" y1="159.77" x2="124.53" y2="170.79" xlink:href="#linear-gradient"/><linearGradient id="linear-gradient-20" x1="103.73" y1="171.32" x2="103.87" y2="171.4" xlink:href="#linear-gradient"/><linearGradient id="linear-gradient-21" x1="136" y1="134" x2="159.84" y2="147.77" gradientTransform="translate(5.49 -10.44) rotate(3.07)" xlink:href="#linear-gradient"/></defs><g id="Layer_2" data-name="Layer 2"><g id="Layer_1-2" data-name="Layer 1"><path class="cls-1" d="M3.81,151.19v15.65a49,49,0,0,0,3.42,18l8.23,20.82h11V151.19Z"/><path class="cls-2" d="M98.22,151.19v15.65a49,49,0,0,1-3.42,18l-8.23,20.82h-11V151.19Z"/><path class="cls-3" d="M46,.15A38.49,38.49,0,0,0,11,41.86L17.49,116H95L87.72,35.15A38.51,38.51,0,0,0,46,.15Z"/><path class="cls-4" d="M87.51,110H14.34A14.34,14.34,0,0,0,0,124.34v26.85H15.26V151s6.86,29.94,0,54.63H86.6c-6.86-24.69,0-54.63,0-54.63h0v.17h15.25V124.34A14.34,14.34,0,0,0,87.51,110Z"/><path class="cls-5" d="M86.6,330H15.26C11.32,287.55.11,261.53,13.44,212.05q.84-3.13,1.82-6.4H86.6q1,3.27,1.82,6.4C101.76,261.53,90.55,287.55,86.6,330Z"/><path class="cls-6" d="M66.88,87.32H50.93l-16-2C41.83,99.39,33.37,110,33.37,110l17.56,17.79h0L68.49,110S60,101.39,66.88,87.32Z"/><circle class="cls-7" cx="24.74" cy="57.89" r="7.02"/><circle class="cls-8" cx="76.97" cy="53.32" r="7.02"/><path class="cls-9" d="M75.21,33.12l2.22,25.37C79,76.27,67.31,94.28,54.34,95.41h0c-13,1.14-27.58-14.57-29.14-32.35L23,37.69c-1.18-13.52,9.55-25.5,24-26.76a27.05,27.05,0,0,1,19.1,5.55A23.73,23.73,0,0,1,75.21,33.12Z"/><rect class="cls-10" x="35.26" y="45.43" width="3.38" height="6.73" rx="1.69" transform="translate(-4.11 3.41) rotate(-5)"/><rect class="cls-11" x="61.68" y="43.12" width="3.38" height="6.73" rx="1.69" transform="translate(-3.81 5.7) rotate(-5)"/><path class="cls-12" d="M62,71.25a9.73,9.73,0,1,1-19.38,1.69"/><path class="cls-13" d="M88.42,212.05h-75q.84-3.13,1.82-6.4H86.6Q87.58,208.92,88.42,212.05Z"/><path class="cls-14" d="M62.61,437.79c-2.62,3.68-5.36,12.85-1.85,27.85h8.49V437.79Z"/><path class="cls-15" d="M61.71,454.76c0,8.48,2.65,12.77,7.54,15s9.09,4,12.09,1.54.37-15.34-7.79-32.74l-10.94-.77S61.71,448.64,61.71,454.76Z"/><path class="cls-16" d="M73.54,439.64c0-19.78,7.11-72.67,3.93-109.65H58.7c-3.18,37,3.93,89.87,3.93,109.65,0,9.95,7,14.29,12.13,14.17S73.54,445.8,73.54,439.64Z"/><path class="cls-17" d="M39.25,437.79c2.62,3.68,5.36,12.85,1.85,27.85H32.61V437.79Z"/><path class="cls-18" d="M40.15,454.76c0,8.48-2.65,12.77-7.54,15s-9.08,4-12.08,1.54-.38-15.34,7.78-32.74l10.94-.77S40.15,448.64,40.15,454.76Z"/><path class="cls-19" d="M28.32,439.64c0-19.78-7.11-72.67-3.93-109.65H43.16c3.18,37-3.93,89.87-3.93,109.65,0,9.95-7,14.29-12.13,14.17S28.32,445.8,28.32,439.64Z"/><path class="cls-20" d="M25.4,25.16s9.73,14,50,10.51L73.1,8.38,24.3,12.64Z"/><polygon class="cls-13" points="33.37 110 42.51 135.08 50.93 127.78 33.37 110"/><polygon class="cls-13" points="68.49 110 59.34 135.08 50.93 127.78 68.49 110"/><circle class="cls-13" cx="79.39" cy="61.56" r="2.31"/><circle class="cls-13" cx="23.8" cy="66.42" r="2.31"/><path class="cls-21" d="M135.35,152c-.06.13-.13.25-.2.38h0c-3,1.43-7.22,4.47-12.91,12.46-5.82,8.19-14.19,34.52-23.92,41.51l0,0c-3.75,2.49-7.76,3.34-11.17.19-8.56-7.92,12.8-36.91,21.87-44.34s15.11-15.56,15.25-22.84c.3-4.06-.52-9.13,2.28-15l3-6.33a1.6,1.6,0,0,1,2.28-.75,1.82,1.82,0,0,1,.87,1.59,1.93,1.93,0,0,1-.13.7c-.85,2.22-2.37,6.43-2.61,9.15-.09,1,.69,2.05,1.77,3.38C134.83,136,140.54,141.74,135.35,152Z"/><path class="cls-22" d="M104,171.23c0,.05-.06.11-.11.18l-.22.11c.07-.13.14-.25.2-.39Z"/><path class="cls-23" d="M159,141.67a2.36,2.36,0,0,1,0,.6,3.31,3.31,0,0,1-2.37,2.74l-23.73,8.13-.23.08c.07-.11.15-.2.21-.3,5.65-7.93.17-12.84-2.81-16.06l18.58-17a3.32,3.32,0,0,1,4.14-.46h0c1.06.86.93,2.47-.29,3.6l-17,15.57,18.91-15a3.17,3.17,0,0,1,4.09-.14h0c.95.95.67,2.58-.65,3.62L140.31,141l16.4-10.17c1.43-.89,3.2-.71,3.95.39a2,2,0,0,1,.33,1.22,3.16,3.16,0,0,1-1.57,2.39l-15.1,9.37,11.21-3.89C157.12,139.73,158.66,140.36,159,141.67Z"/></g></g></svg>